<svg data-v-0dd9719b="" version="1.0" xmlns="http://www.w3.org/2000/svg" xmlns:xlink="http://www.w3.org/1999/xlink" width="100%" height="100%" viewBox="0 0 340.000000 250.000000" preserveAspectRatio="xMidYMid meet" color-interpolation-filters="sRGB" style="margin: auto;"> <rect data-v-0dd9719b="" x="0" y="0" width="100%" height="100%" fill="#fff" fill-opacity="1" class="background"></rect> <rect data-v-0dd9719b="" x="0" y="0" width="100%" height="100%" fill="url(#watermark)" fill-opacity="1" class="watermarklayer"></rect> <g data-v-0dd9719b="" fill="#333333" class="icon-text-wrapper icon-svg-group iconsvg" transform="translate(63.5,94.94319152832031)"><g class="iconsvg-imagesvg" transform="translate(0,0)"><g><rect fill="#333333" fill-opacity="0" stroke-width="2" x="0" y="0" width="60" height="60.11361473184318" class="image-rect"></rect> <svg x="0" y="0" width="60" height="60.11361473184318" filtersec="colorsb4080656463" class="image-svg-svg primary" style="overflow: visible;"><svg xmlns="http://www.w3.org/2000/svg" viewBox="-0.0016283988952636719 -0.021178483963012695 384.0625915527344 384.7880554199219"><g><g><path d="M87.69 353.33c1.34-1.29 2.51-.81 3.61-.59 26.07 5.22 52 3.29 77.91-1.31a62.35 62.35 0 0 1 14.39-1.15c28.8 1.58 56.17-4.18 81.46-17.88 45.56-24.69 73.52-62.63 82.51-113.88 6.84-39 .1-75.85-21.52-109.06-16.08-24.7-39.8-36.92-69.6-37.27-25.77-.3-49.44 6-70.71 20.71-17.74 12.21-29.63 28.91-37.74 48.67.51.11 1 .28 1 .2 10.63-18.31 26.38-31.08 44.61-41.15 18.71-10.34 38.84-16.53 59.75-20.51 4.52-.86 5.49.91 5.39 5-.63 23.85-6.64 45.78-22.81 64-9.57 10.79-21.58 18.11-34.71 23.89s-26.74 9.24-40 14.14c-21.08 7.78-34.88 22.58-42.48 43.48-.48 1.32-.24 3.44-2.14 3.49-1.63 0-1.67-1.9-1.94-3.1-8.19-37.24-9.82-74.35 3.9-110.73 14.3-37.88 42.59-60.36 80.71-71.28 28.89-8.27 58.45-10.84 88.05-5.67 26.18 4.57 48 17.09 63.07 40.11 11.48 17.58 20.9 36.09 26.26 56.36 13.55 51.22 8.95 100.75-17.58 146.92-32.42 56.42-81.5 89.08-146.32 96.7-43.47 5.11-84.11-4.42-121.69-26.89a18.17 18.17 0 0 1-2.41-1.76 7.36 7.36 0 0 1-.97-1.44z" fill="#e89729"></path><path d="M295.76 32.28A216.28 216.28 0 0 0 271.07 29c-19.29-1.4-38.23 1-57.12 4.12a67.27 67.27 0 0 1-14.38 1.16 154.89 154.89 0 0 0-65.14 10.4 157.72 157.72 0 0 0-60.26 41.76C53 110 39.86 137.52 35.31 168.86c-5.39 37.09.88 72.33 20.61 104.23 15.56 25.16 39 38.26 69 39.38a121.58 121.58 0 0 0 60.86-13.15c24.22-12.32 40.3-32.12 50.33-57.09-1.14-.84-1.38.06-1.64.51-12.14 20.81-30.53 34.51-51.68 44.87a195.19 195.19 0 0 1-51.7 16.66c-6.38 1.14-6.88.82-6.48-5.46 1.66-26 8.41-49.93 28.32-68.36 9.8-9.07 21.29-15.35 33.58-20.35s25-8.36 37.28-12.94c20.39-7.58 33.31-22.54 41.11-42.41.58-1.47.51-3.35 2.67-4.33 2.76 6.53 3.59 13.45 4.57 20.27 4.29 29.83 4.4 59.45-5.29 88.45-12 36-36.47 59.77-71.69 72.83-21.79 8.08-44.49 10.91-67.64 11.65-18.26.58-35.83-1.66-52.74-8.69-19.1-7.93-33.68-20.84-44.58-38.46-17.9-28.94-28.32-60-29.95-94.16q-3.66-76.72 45.91-135.16C75.75 32.32 113.35 10.72 158.32 3c47.78-8.19 92.81.26 134.45 25.49a18.12 18.12 0 0 1 2.37 1.81c.2.19.2.6.62 1.98z" fill="#7eb042"></path></g></g></svg></svg> <!----></g></g> <g transform="translate(67,4.3705596923828125)"><g data-gra="path-name" fill-rule="" class="tp-name iconsvg-namesvg" transform="translate(0,0)"><g transform="scale(1)"><g><path d="M5.36-29.6L5.36-32.8 9.36-32.8 18.61-32.8 16.77-36 21.39-36 23.23-32.8 36-32.8 36-29.6 9.36-29.6 9.36-18.57 9.36-15.37 9.36-4.59Q9.36-2.05 8.1 0L8.1 0 4 0Q5.36-2.02 5.36-4.59L5.36-4.59 5.36-15.37 5.36-18.57 5.36-29.6ZM67.11-29.57L70-29.57 70-29.57 74-29.57 74-26.4 74-3.17 74 0 46.8 0Q44.82 0 43.41-1.41 42-2.82 42-4.8L42-4.8 42-26.4 42-29.57 46-29.57 48.89-29.57 48.89-32.77 42-32.77 42-35.97 74-35.97 74-32.77 67.11-32.77 67.11-29.57ZM46-3.17L70-3.17 70-26.4 67.11-26.4 67.11-10.99Q67.11-8.42 68.43-6.37L68.43-6.37 64.37-6.37Q63.11-8.45 63.11-10.99L63.11-10.99 63.11-26.4 52.89-26.4 52.89-10.99Q52.89-8.42 51.63-6.37L51.63-6.37 47.53-6.37Q48.89-8.42 48.89-10.99L48.89-10.99 48.89-26.4 46-26.4 46-3.17ZM52.89-29.57L63.11-29.57 63.11-32.77 52.89-32.77 52.89-29.57ZM85.36-29.6L85.36-23.2 108-23.2 108-29.6 85.36-29.6ZM112-14.82L112-13.6 112 0 108 0 92.14 0Q90.16 0 88.75-1.41 87.34-2.82 87.34-4.8L87.34-4.8 87.34-16.8 91.34-16.8 112-16.8 112-14.82ZM91.34-3.2L108-3.2 108-13.6 91.34-13.6 91.34-3.2ZM98.05-36L99.9-32.8 108-32.8 112-32.8 112-29.6 112-23.2 112-20 108-20 85.36-20 85.36-18.57 85.36-15.37 85.36-4.59Q85.36-2.05 84.07 0L84.07 0 80 0Q81.36-2.05 81.36-4.59L81.36-4.59 81.36-15.37 81.36-18.57 81.36-20 81.36-23.2 81.36-29.6 81.36-32.8 85.36-32.8 95.3-32.8 93.43-36 98.05-36ZM118-29.57L118-32.77 132.61-32.77 130.77-35.97 135.39-35.97 137.23-32.77 150-32.77 150-29.57 150-26.4 146-26.4 146-29.57 122-29.57 122-26.4 118-26.4 118-29.57ZM124.02-13.15L124.02-9.74 142-9.74 140.16-6.54 124.02-6.54 124.02-3.17 143.98-3.17 143.98-19.97 124.02-19.97 124.02-16.31 142-16.31 140.16-13.15 124.02-13.15ZM148.02-23.17L148.02-19.97 148.02-3.17 150-3.17 150 0 118 0 118-3.17 119.98-3.17 119.98-19.97 119.98-23.17 148.02-23.17Z" transform="translate(-4, 36)"></path></g> <!----> <!----> <!----> <!----> <!----> <!----> <!----></g></g> <g data-gra="path-slogan" fill-rule="" class="tp-slogan iconsvg-slogansvg" fill="#7eb042" transform="translate(5,43)"><rect x="0" height="1" y="4.185000419616699" width="24.589447021484375"></rect> <rect height="1" y="4.185000419616699" width="24.589447021484375" x="111.41055297851562"></rect> <g transform="translate(27.589447021484375,0)"><g transform="scale(1)"><path d="M7.31-3.61L4.69-3.61L4.69-4.59L8.44-4.59L8.44 0L7.69 0L7.41-1.08Q6.42 0.09 4.59 0.14L4.59 0.14Q2.86 0.14 1.92-0.75L1.92-0.75Q0.52-2.06 0.56-4.36L0.56-4.36Q0.89-8.63 4.64-8.81L4.64-8.81Q7.83-8.63 8.30-6L8.30-6L7.17-6Q6.70-7.78 4.59-7.83L4.59-7.83Q1.92-7.64 1.78-4.31L1.78-4.31Q1.78-0.75 4.64-0.75L4.64-0.75Q5.67-0.75 6.42-1.31L6.42-1.31Q7.36-2.06 7.31-3.61L7.31-3.61ZM15.89-3.19L15.89-8.58L17.06-8.58L17.06-3.05Q16.92 0.05 13.55 0.14L13.55 0.14Q10.41 0.05 10.27-2.86L10.27-2.86L10.27-8.58L11.44-8.58L11.44-3.19Q11.48-0.84 13.59-0.80L13.59-0.80Q15.89-0.84 15.89-3.19L15.89-3.19ZM24.52 0L23.67-2.48L20.20-2.48L19.31 0L18.14 0L21.38-8.58L22.69-8.58L25.78 0L24.52 0ZM21.94-7.31L20.58-3.52L23.25-3.52L21.98-7.31L21.94-7.31ZM28.22-8.58L32.53-1.64L32.53-8.58L33.66-8.58L33.66 0L32.34 0L27.98-6.94L27.94-6.94L27.94 0L26.81 0L26.81-8.58L28.22-8.58ZM41.86-3.61L39.23-3.61L39.23-4.59L42.98-4.59L42.98 0L42.23 0L41.95-1.08Q40.97 0.09 39.14 0.14L39.14 0.14Q37.41 0.14 36.47-0.75L36.47-0.75Q35.06-2.06 35.11-4.36L35.11-4.36Q35.44-8.63 39.19-8.81L39.19-8.81Q42.38-8.63 42.84-6L42.84-6L41.72-6Q41.25-7.78 39.14-7.83L39.14-7.83Q36.47-7.64 36.33-4.31L36.33-4.31Q36.33-0.75 39.19-0.75L39.19-0.75Q40.22-0.75 40.97-1.31L40.97-1.31Q41.91-2.06 41.86-3.61L41.86-3.61ZM51.52-8.58L48.61-4.41L51.66 0L50.20 0L47.86-3.52L45.52 0L44.11 0L47.20-4.41L44.30-8.58L45.75-8.58L47.91-5.30L50.11-8.58L51.52-8.58ZM52.92-8.58L54.09-8.58L54.09 0L52.92 0L52.92-8.58ZM64.41-1.08L63.52-1.78L64.13-2.48L65.20-1.64Q66.19-2.63 66.19-4.27L66.19-4.27Q66-7.64 63.19-7.83L63.19-7.83Q60.33-7.69 60.19-4.27L60.19-4.27Q60.33-0.94 63.19-0.80L63.19-0.80Q63.89-0.80 64.41-1.08L64.41-1.08ZM66.14-0.94L67.27-0.05L66.70 0.56L65.39-0.33Q64.55 0.14 63.19 0.14L63.19 0.14Q59.25 0 58.97-4.27L58.97-4.27Q59.20-8.72 63.19-8.81L63.19-8.81Q67.08-8.67 67.36-4.27L67.36-4.27Q67.31-2.20 66.14-0.94L66.14-0.94ZM68.91-8.58L70.08-8.58L70.08 0L68.91 0L68.91-8.58ZM78.98-8.58L75.75-3.47L75.75 0L74.58 0L74.58-3.47L71.34-8.58L72.70-8.58L75.14-4.45L77.63-8.58L78.98-8.58ZM80.20-8.58L81.38-8.58L81.38 0L80.20 0L80.20-8.58Z" transform="translate(-0.5609879032258065, 8.8125)"></path></g></g></g></g></g><defs v-gra="od"></defs></svg>